# xmcd CD database file
#
# Track frame offsets:
#	150
#	16518
#	33323
#	48791
#	69200
#	85669
#	105047
#	118010
#	136458
#	149999
#	165294
#	178024
#	195295
#	207895
#	228699
#
# Disc length: 3388 seconds
#
# Revision: 0
# Processed by: cddbd v1.4PL0 Copyright (c) Steve Scherf et al.
# Submitted via: CDex 1.40Release
#
DISCID=b80d3a0f
DTITLE=Michael Reno Harrell - Closer Home
DYEAR=2003
DGENRE=Country
TTITLE0=Blue Eyed Jane
TTITLE1=Let My Baby Be
TTITLE2=Dixie Breezes
TTITLE3=East Kentucky Dream
TTITLE4=Catfish Bite
TTITLE5=Molly In Killeen
TTITLE6=Cotton Mill Dress
TTITLE7=The Chocolate Kid
TTITLE8=Family
TTITLE9=Germany
TTITLE10=Headlights
TTITLE11=Road In Wyoming
TTITLE12=Sarah
TTITLE13=Sweet Water
TTITLE14=The Nickel
EXTD=YEAR: 2003 ID3G: 2
EXTT0=
EXTT1=
EXTT2=
EXTT3=
EXTT4=
EXTT5=
EXTT6=
EXTT7=
EXTT8=
EXTT9=
EXTT10=
EXTT11=
EXTT12=
EXTT13=
EXTT14=
PLAYORDER=
